<svg width="20" height="20" viewBox="0 0 20 20" fill="none" xmlns="http://www.w3.org/2000/svg">
<path fill-rule="evenodd" clip-rule="evenodd" d="M9.46967 16.5303C9.76256 16.8232 10.2374 16.8232 10.5303 16.5303C10.8232 16.2374 10.8232 15.7626 10.5303 15.4697L5.80675 10.7461L16 10.7461C16.4142 10.7461 16.75 10.4103 16.75 9.99609C16.75 9.58188 16.4142 9.24609 16 9.24609L5.81457 9.24609L10.5303 4.53033C10.8232 4.23744 10.8232 3.76256 10.5303 3.46967C10.2374 3.17678 9.76256 3.17678 9.46967 3.46967L3.51724 9.4221C3.35383 9.55968 3.25 9.76576 3.25 9.99609C3.25 9.99679 3.25 9.99748 3.25 9.99818C3.24954 10.1907 3.32276 10.3834 3.46967 10.5303L9.46967 16.5303Z" fill="black"/>
</svg>
